<svg width="207" height="58" viewBox="0 0 207 58" fill="none" xmlns="http://www.w3.org/2000/svg">
<path fill-rule="evenodd" clip-rule="evenodd" d="M139.233 0.0370388C117.896 0.14726 96.5703 0.509261 75.2759 1.12899C55.0255 1.71899 33.0536 1.27108 13.1331 3.07623C7.47658 3.58843 -0.164454 5.95927 7.3568 8.56675C12.6434 10.4 31.985 8.2912 38.2979 8.1129C61.5463 7.4559 84.8064 6.66868 108.088 6.29047C130.128 5.93225 152.167 5.80582 174.217 5.70479C177.584 5.68966 183.172 5.19312 186.525 5.64265C191.342 6.28885 190.199 6.46445 190.56 9.27617C191.214 14.3707 191.033 19.4835 190.813 24.5829C190.601 29.5174 190.204 34.4514 190.243 39.3882C190.27 42.9104 187.821 49.9094 191.665 52.9681C197.197 57.371 202.935 52.5888 203.349 49.6631C204.14 44.0672 203.786 38.4027 203.789 32.7997C203.791 27.5405 203.874 22.2812 203.471 17.0246C203.178 13.2274 204.359 6.59898 199.91 3.14701C195.38 -0.368726 184.472 0.389314 176.513 0.221821C164.097 -0.0407644 151.659 -0.0223942 139.233 0.0370388" fill="#555477"/>
<path fill-rule="evenodd" clip-rule="evenodd" d="M3.05662 6.02421C3.07726 16.0345 0.892567 25.9781 0.280606 35.9769C-9.18773e-05 40.574 -0.569743 45.6222 1.62424 50.135C3.83886 54.6916 10.8728 55.679 11.6829 50.592C13.3238 40.2911 12.9213 29.6097 14.1989 19.2261C14.6498 15.56 17.5848 8.84138 14.8449 5.40845C12.4321 2.38439 3.0463 1.80476 3.05662 6.02421Z" fill="#555477"/>
<path fill-rule="evenodd" clip-rule="evenodd" d="M203.557 49.9399C166.503 52.1957 127.766 51.3733 90.4473 51.7278C72.5431 51.8979 54.6423 51.9088 36.7358 51.9947C30.4863 52.0244 14.6159 50.9313 9.2095 52.5468C0.603207 55.1187 9.94107 57.1032 15.6387 57.1599C50.9763 57.516 86.7072 56.7688 122.038 56.2355C137.912 55.9961 153.837 55.8789 169.669 55.2586C179.415 54.8766 190.066 54.5065 199.531 53.3022C201.547 53.045 205.938 53.0985 206.39 51.8337C206.668 51.0513 206.163 49.7746 203.557 49.9399" fill="#555477"/>
<path d="M71.58 22.43V25.03H65.6V28.43H70.18V30.93H65.6V34.4H71.58V37H62.2V22.43H71.58ZM81.6286 25.39C81.5286 25.55 81.4219 25.67 81.3086 25.75C81.2019 25.83 81.0619 25.87 80.8886 25.87C80.7353 25.87 80.5686 25.8233 80.3886 25.73C80.2153 25.63 80.0153 25.52 79.7886 25.4C79.5686 25.28 79.3153 25.1733 79.0286 25.08C78.7419 24.98 78.4153 24.93 78.0486 24.93C77.4153 24.93 76.9419 25.0667 76.6286 25.34C76.3219 25.6067 76.1686 25.97 76.1686 26.43C76.1686 26.7233 76.2619 26.9667 76.4486 27.16C76.6353 27.3533 76.8786 27.52 77.1786 27.66C77.4853 27.8 77.8319 27.93 78.2186 28.05C78.6119 28.1633 79.0119 28.2933 79.4186 28.44C79.8253 28.58 80.2219 28.7467 80.6086 28.94C81.0019 29.1333 81.3486 29.38 81.6486 29.68C81.9553 29.98 82.2019 30.3467 82.3886 30.78C82.5753 31.2067 82.6686 31.7233 82.6686 32.33C82.6686 33.0033 82.5519 33.6333 82.3186 34.22C82.0853 34.8067 81.7453 35.32 81.2986 35.76C80.8586 36.1933 80.3119 36.5367 79.6586 36.79C79.0119 37.0367 78.2753 37.16 77.4486 37.16C76.9953 37.16 76.5319 37.1133 76.0586 37.02C75.5919 36.9267 75.1386 36.7967 74.6986 36.63C74.2586 36.4567 73.8453 36.2533 73.4586 36.02C73.0719 35.7867 72.7353 35.5267 72.4486 35.24L73.4486 33.66C73.5219 33.54 73.6253 33.4433 73.7586 33.37C73.8919 33.2967 74.0353 33.26 74.1886 33.26C74.3886 33.26 74.5886 33.3233 74.7886 33.45C74.9953 33.5767 75.2253 33.7167 75.4786 33.87C75.7386 34.0233 76.0353 34.1633 76.3686 34.29C76.7019 34.4167 77.0953 34.48 77.5486 34.48C78.1619 34.48 78.6386 34.3467 78.9786 34.08C79.3186 33.8067 79.4886 33.3767 79.4886 32.79C79.4886 32.45 79.3953 32.1733 79.2086 31.96C79.0219 31.7467 78.7753 31.57 78.4686 31.43C78.1686 31.29 77.8253 31.1667 77.4386 31.06C77.0519 30.9533 76.6553 30.8367 76.2486 30.71C75.8419 30.5767 75.4453 30.4167 75.0586 30.23C74.6719 30.0367 74.3253 29.7867 74.0186 29.48C73.7186 29.1667 73.4753 28.78 73.2886 28.32C73.1019 27.8533 73.0086 27.28 73.0086 26.6C73.0086 26.0533 73.1186 25.52 73.3386 25C73.5586 24.48 73.8819 24.0167 74.3086 23.61C74.7353 23.2033 75.2586 22.88 75.8786 22.64C76.4986 22.3933 77.2086 22.27 78.0086 22.27C78.4553 22.27 78.8886 22.3067 79.3086 22.38C79.7353 22.4467 80.1386 22.55 80.5186 22.69C80.8986 22.8233 81.2519 22.9867 81.5786 23.18C81.9119 23.3667 82.2086 23.58 82.4686 23.82L81.6286 25.39ZM87.7284 32.13V37H84.3484V22.43H89.4884C90.5151 22.43 91.3951 22.5533 92.1284 22.8C92.8684 23.04 93.4751 23.3733 93.9484 23.8C94.4284 24.2267 94.7818 24.73 95.0084 25.31C95.2351 25.89 95.3484 26.5167 95.3484 27.19C95.3484 27.9167 95.2318 28.5833 94.9984 29.19C94.7651 29.7967 94.4084 30.3167 93.9284 30.75C93.4484 31.1833 92.8384 31.5233 92.0984 31.77C91.3651 32.01 90.4951 32.13 89.4884 32.13H87.7284ZM87.7284 29.58H89.4884C90.3684 29.58 91.0018 29.37 91.3884 28.95C91.7751 28.53 91.9684 27.9433 91.9684 27.19C91.9684 26.8567 91.9184 26.5533 91.8184 26.28C91.7184 26.0067 91.5651 25.7733 91.3584 25.58C91.1584 25.38 90.9018 25.2267 90.5884 25.12C90.2818 25.0133 89.9151 24.96 89.4884 24.96H87.7284V29.58ZM108.963 37H106.343C106.05 37 105.806 36.9333 105.613 36.8C105.426 36.66 105.296 36.4833 105.223 36.27L104.363 33.73H98.8231L97.9631 36.27C97.8965 36.4567 97.7665 36.6267 97.5731 36.78C97.3798 36.9267 97.1431 37 96.8631 37H94.2231L99.8631 22.43H103.323L108.963 37ZM99.6031 31.43H103.583L102.243 27.44C102.156 27.1867 102.053 26.89 101.933 26.55C101.82 26.2033 101.706 25.83 101.593 25.43C101.486 25.8367 101.376 26.2133 101.263 26.56C101.15 26.9067 101.043 27.2067 100.943 27.46L99.6031 31.43ZM119.334 33.23C119.414 33.23 119.494 33.2467 119.574 33.28C119.654 33.3067 119.73 33.3567 119.804 33.43L121.144 34.84C120.557 35.6067 119.82 36.1867 118.934 36.58C118.054 36.9667 117.01 37.16 115.804 37.16C114.697 37.16 113.704 36.9733 112.824 36.6C111.95 36.22 111.207 35.7 110.594 35.04C109.987 34.3733 109.52 33.5867 109.194 32.68C108.867 31.7667 108.704 30.7767 108.704 29.71C108.704 28.6233 108.89 27.6267 109.264 26.72C109.637 25.8067 110.157 25.02 110.824 24.36C111.497 23.7 112.3 23.1867 113.234 22.82C114.167 22.4533 115.197 22.27 116.324 22.27C116.87 22.27 117.384 22.32 117.864 22.42C118.35 22.5133 118.804 22.6467 119.224 22.82C119.644 22.9867 120.03 23.19 120.384 23.43C120.737 23.6633 121.05 23.9233 121.324 24.21L120.184 25.74C120.11 25.8333 120.024 25.92 119.924 26C119.824 26.0733 119.684 26.11 119.504 26.11C119.384 26.11 119.27 26.0833 119.164 26.03C119.057 25.9767 118.944 25.9133 118.824 25.84C118.704 25.76 118.57 25.6767 118.424 25.59C118.284 25.4967 118.114 25.4133 117.914 25.34C117.72 25.26 117.49 25.1933 117.224 25.14C116.964 25.0867 116.657 25.06 116.304 25.06C115.69 25.06 115.13 25.17 114.624 25.39C114.117 25.6033 113.68 25.9133 113.314 26.32C112.954 26.72 112.67 27.2067 112.464 27.78C112.264 28.3533 112.164 28.9967 112.164 29.71C112.164 30.4567 112.264 31.12 112.464 31.7C112.67 32.28 112.947 32.77 113.294 33.17C113.647 33.5633 114.057 33.8633 114.524 34.07C114.99 34.2767 115.49 34.38 116.024 34.38C116.33 34.38 116.61 34.3667 116.864 34.34C117.117 34.3067 117.35 34.2533 117.564 34.18C117.784 34.1067 117.99 34.0133 118.184 33.9C118.384 33.78 118.584 33.6333 118.784 33.46C118.864 33.3933 118.95 33.34 119.044 33.3C119.137 33.2533 119.234 33.23 119.334 33.23ZM126.388 37H122.988V22.43H126.388V37ZM143.475 29.71C143.475 30.7633 143.291 31.7433 142.925 32.65C142.565 33.5567 142.055 34.3467 141.395 35.02C140.735 35.6867 139.938 36.21 139.005 36.59C138.078 36.97 137.048 37.16 135.915 37.16C134.781 37.16 133.748 36.97 132.815 36.59C131.881 36.21 131.081 35.6867 130.415 35.02C129.755 34.3467 129.241 33.5567 128.875 32.65C128.515 31.7433 128.335 30.7633 128.335 29.71C128.335 28.6567 128.515 27.6767 128.875 26.77C129.241 25.8633 129.755 25.0767 130.415 24.41C131.081 23.7433 131.881 23.22 132.815 22.84C133.748 22.46 134.781 22.27 135.915 22.27C137.048 22.27 138.078 22.4633 139.005 22.85C139.938 23.23 140.735 23.7533 141.395 24.42C142.055 25.0867 142.565 25.8733 142.925 26.78C143.291 27.6867 143.475 28.6633 143.475 29.71ZM140.015 29.71C140.015 28.99 139.921 28.3433 139.735 27.77C139.548 27.19 139.278 26.7 138.925 26.3C138.578 25.9 138.151 25.5933 137.645 25.38C137.138 25.1667 136.561 25.06 135.915 25.06C135.261 25.06 134.678 25.1667 134.165 25.38C133.658 25.5933 133.228 25.9 132.875 26.3C132.528 26.7 132.261 27.19 132.075 27.77C131.888 28.3433 131.795 28.99 131.795 29.71C131.795 30.4367 131.888 31.09 132.075 31.67C132.261 32.2433 132.528 32.73 132.875 33.13C133.228 33.53 133.658 33.8367 134.165 34.05C134.678 34.2567 135.261 34.36 135.915 34.36C136.561 34.36 137.138 34.2567 137.645 34.05C138.151 33.8367 138.578 33.53 138.925 33.13C139.278 32.73 139.548 32.2433 139.735 31.67C139.921 31.09 140.015 30.4367 140.015 29.71Z" fill="#555477"/>
</svg>
