<svg width="177" height="257" viewBox="0 0 177 257" fill="none" xmlns="http://www.w3.org/2000/svg">
<path fill-rule="evenodd" clip-rule="evenodd" d="M96.3102 49.2653C100.12 51.5614 103.863 52.6709 105.62 52.218C110.026 51.0823 110.431 34.9644 107.022 28.6103C103.613 22.2561 86.0875 19.4866 85.2042 32.0762C84.8976 36.4457 86.7323 40.3451 89.4431 43.527L84.5825 66.1819H98.7014L96.3102 49.2653Z" fill="#B28B67"/>
<path fill-rule="evenodd" clip-rule="evenodd" d="M98.9744 21.2869C97.1136 20.9817 92.1032 20.7719 91.1792 20.7721C90.5887 20.7721 89.9488 20.907 89.5991 20.3648C89.3127 19.9208 89.4176 19.1699 89.3322 18.6547C89.2329 18.0561 89.0919 17.4653 88.9494 16.876C88.5436 15.1991 87.93 13.6037 87.0715 12.1058C85.4606 9.2956 83.1007 7.09436 80.1215 5.81347C76.8315 4.39916 73.1086 4.07531 69.5698 4.36218C65.7828 4.6691 62.3547 5.91925 58.7791 7.09572C55.3718 8.21679 51.803 8.65807 48.2393 8.1106C44.6488 7.55907 41.9358 5.61301 38.9072 3.76596C35.8068 1.87502 32.2637 0.638282 28.5985 0.922579C25.1771 1.18805 22.0238 2.60073 19.1947 4.48788C16.5477 6.25353 14.3636 8.37783 13.1305 11.3676C11.804 14.5837 11.8052 18.114 13.9866 20.9563C17.1484 25.0762 23.0183 26.1416 27.9017 26.0357C30.7264 25.9746 33.5005 25.459 36.1674 24.521C39.7239 23.2701 42.7973 21.1498 46.1245 19.4295C47.686 18.6223 49.3 17.9593 50.9917 17.4817C52.6334 17.0181 54.2504 16.8054 55.7368 17.7972C57.3092 18.8463 58.7182 19.8769 60.5171 20.5337C62.2427 21.1638 64.0706 21.5162 65.9092 21.502C69.4863 21.4743 73.0126 20.3598 76.4869 19.6132C79.3201 19.0045 82.3515 18.3979 85.2399 18.983C86.4451 19.2272 88.2056 19.7313 88.641 20.9839C81.3142 22.3118 78.4366 31.373 80.5021 38.0248C81.6169 41.615 88.3181 45.8119 90.9236 43.9245C92.5743 42.7288 91.5722 41.159 90.9236 40.1227C89.6816 38.1382 89.2567 35.589 91.5549 34.2073C93.5372 33.0157 95.6215 35.8455 95.661 35.8424C96.2058 35.7994 100.914 33.1369 104.157 29.2516C107.357 29.4413 107.843 27.3314 107.079 25.6059C106.315 23.8804 101.545 21.7088 98.9744 21.2869Z" fill="#191847"/>
<path fill-rule="evenodd" clip-rule="evenodd" d="M75.1891 115.859L97.294 188.267L108.002 249.844H116.398L105.083 115.859H75.1891Z" fill="#997659"/>
<path fill-rule="evenodd" clip-rule="evenodd" d="M67.2811 115.859C68.7826 155.615 67.0156 176.121 66.6796 179.733C66.3435 183.345 61.7421 206.765 50.8488 251.057L59.7953 247.978C77.0112 207.356 82.8777 186.245 84.8523 180.911C86.8268 175.576 92.0711 153.893 100.585 115.859H67.2811Z" fill="#B28B67"/>
<path fill-rule="evenodd" clip-rule="evenodd" d="M53.3752 247.624C52.2852 247.193 51.0065 247.664 50.6367 248.776C50.2798 249.849 49.9302 251.1 49.9302 251.879C49.9302 253.471 50.4596 256.525 50.4596 256.525C52.3028 256.525 83.5909 256.525 83.5909 256.525C83.5909 256.525 84.8823 252.248 82.0999 251.907C79.3174 251.565 77.477 251.291 77.477 251.291L62.4666 244.586C61.9517 244.356 61.3486 244.597 61.134 245.118L60.3058 247.131C60.3058 247.131 57.73 248.335 56.1196 248.335C55.3751 248.335 54.3077 247.993 53.3752 247.624Z" fill="#E4E4E4"/>
<path fill-rule="evenodd" clip-rule="evenodd" d="M108.592 247.624C107.502 247.193 106.224 247.664 105.854 248.776C105.497 249.849 105.147 251.1 105.147 251.879C105.147 253.471 105.677 256.525 105.677 256.525C107.52 256.525 138.808 256.525 138.808 256.525C138.808 256.525 140.099 252.248 137.317 251.907C134.535 251.565 132.694 251.291 132.694 251.291L117.684 244.586C117.169 244.356 116.566 244.597 116.351 245.118L115.523 247.131C115.523 247.131 112.947 248.335 111.337 248.335C110.592 248.335 109.525 247.993 108.592 247.624Z" fill="#E4E4E4"/>
<path fill-rule="evenodd" clip-rule="evenodd" d="M72.252 115.859L81.6506 152.75H110.358L106.077 115.859H72.252Z" fill="#69A1AC"/>
<path fill-rule="evenodd" clip-rule="evenodd" d="M66.9653 115.859C62.3266 129.791 65.203 152.75 65.203 152.75H94.4976L102.553 115.859H66.9653Z" fill="#89C5CC"/>
<path fill-rule="evenodd" clip-rule="evenodd" d="M35.0007 134.415C37.1937 131.197 51.9765 87.9017 51.9765 87.9017L64.7264 89.7423C64.7264 89.7423 43.5286 134.827 42.3174 136.924C40.7441 139.648 42.1374 144.122 43.0822 147.157C43.2284 147.626 43.3638 148.061 43.4759 148.45C41.493 149.021 40.7383 147.887 39.9427 146.693C39.044 145.343 38.0931 143.915 35.2613 144.776C34.1672 145.109 33.1161 145.536 32.0891 145.954C28.5419 147.396 25.2832 148.721 21.5392 145.62C20.9456 145.128 20.4453 143.521 22.3313 142.586C27.03 140.254 33.9285 135.987 35.0007 134.415ZM144.875 132.177L130.631 113.787L123.819 122.484L139.56 134.995C142.912 142.366 145.029 145.645 145.909 144.831C146.652 144.146 146.481 143.255 146.323 142.435C146.201 141.797 146.086 141.2 146.418 140.777C147.176 139.809 150.537 140.897 153.681 142.065C156.826 143.233 156.299 141.536 155.726 140.609C153.006 137.707 149.389 134.896 144.875 132.177Z" fill="#B28B67"/>
<path fill-rule="evenodd" clip-rule="evenodd" d="M95.9248 57.2418L101.083 57.0873C105.084 86.204 143.174 111.021 144.206 121.841C144.584 125.808 141.544 127.36 142.809 128.73L135.589 132.594C134.662 131.147 131.963 133.177 127.254 130.83C122.545 128.483 91.265 90.3979 95.9248 57.2418Z" fill="#DB2721"/>
<path fill-rule="evenodd" clip-rule="evenodd" d="M89.398 50.4788C87.2371 50.0198 85.1127 51.3993 84.6532 53.5601L84.2793 55.318C73.7754 61.2682 47.2201 79.7278 35.4037 119.378C34.1625 123.543 35.0053 125.986 35.6787 127.938C36.1394 129.273 36.5208 130.379 36.1016 131.648L44.339 135.214C44.4742 134.252 45.6571 133.672 47.1831 132.923C49.4021 131.835 52.3467 130.391 53.8512 126.899C55.2773 123.589 57.2613 119.484 59.582 114.932C58.8474 121.289 59.2321 127.284 61.1756 132.477C66.0244 145.434 105.677 137.545 111.352 125.819C114.38 119.562 112.163 113.64 109.232 105.808C105.509 95.864 100.635 82.8414 103.877 62.145C103.882 62.122 103.887 62.099 103.892 62.0758L104.794 57.8385C105.253 55.6777 103.874 53.5539 101.713 53.0949L89.398 50.4788Z" fill="#FF4133"/>
</svg>
